<svg width="151" height="20" viewBox="0 0 151 20" fill="none" xmlns="http://www.w3.org/2000/svg"><path d="M72.913 16.762v1.986a.764.764 0 01-.77.747l-14.96-.01a.752.752 0 01-.745-.759v-2.251c0-.176.088-.354.213-.495L67.348 4.01h-10.77a.741.741 0 01-.744-.747l.014-2.032a.752.752 0 01.755-.746l14.962.02a.752.752 0 01.744.758v2.144c0 .22-.052.407-.195.57l-10.681 12.03h10.736c.414 0 .746.34.744.755zM90.839 19.727c-5.372-.04-9.709-4.46-9.67-9.852.039-5.392 4.44-9.748 9.811-9.708 5.37.04 9.709 4.46 9.669 9.852-.036 5.392-4.438 9.747-9.81 9.708zm.117-15.88c-3.35-.025-6.098 2.692-6.121 6.056-.024 3.364 2.682 6.122 6.032 6.146 3.35.024 6.096-2.693 6.122-6.056.023-3.366-2.683-6.123-6.033-6.147zM122.722 16.455v2.529c-.001.273-.302.509-.646.507l-10.468-.008a.496.496 0 01-.491-.499V.986c.002-.274.356-.495.63-.493l2.535-.004a.496.496 0 01.492.499v14.966h7.328c.346.004.622.227.62.5zM149.717 19.489h-2.728a.541.541 0 01-.493-.327l-1.631-3.837h-8.877l-1.718 3.845a.544.544 0 01-.499.319h-2.762a.545.545 0 01-.489-.77L138.648.827c.092-.196.262-.337.463-.337h2.849c.221 0 .37.165.458.365l7.798 17.87a.543.543 0 01-.499.763zm-6.393-7.69l-2.823-6.463-2.919 6.463h5.742z" fill="#21201F"/><path d="M23.61 2.27zM24.304 2.255z" fill="#F1B4B1"/><path d="M24.015 1.97l-.05-.048.05.048z" fill="#C5164A"/><path d="M23.962 12.696a15.578 15.578 0 01-.244-.288l-.046-.056a19.004 19.004 0 01-.183-.227l-.064-.082a7.328 7.328 0 01-.218-.293 13.754 13.754 0 01-.195-.278l-.01-.014c-.066-.098-.13-.196-.191-.293-.018-.028-.034-.056-.052-.082-.043-.072-.087-.142-.129-.214l-.057-.102c-.04-.07-.078-.14-.116-.21-.016-.031-.034-.061-.05-.093-.051-.1-.101-.2-.147-.302a6.726 6.726 0 01-.133-.305c-.014-.032-.026-.066-.038-.098a9.255 9.255 0 01-.117-.325 4.213 4.213 0 01-.066-.21l-.031-.106a6.194 6.194 0 01-.068-.26l-.014-.053a8.416 8.416 0 01-.066-.311l-.017-.102a7.652 7.652 0 01-.034-.216l-.016-.122c-.008-.065-.014-.133-.02-.2-.004-.041-.008-.081-.01-.121-.006-.074-.008-.148-.012-.22a1.6 1.6 0 01-.004-.097c-.002-.102-.002-.204-.002-.304 0-.038.002-.076.004-.114a7.018 7.018 0 01.02-.335c.004-.06.01-.118.016-.178.004-.046.01-.093.016-.14.008-.06.016-.12.026-.177l.02-.134c.015-.096.033-.191.055-.285l.032-.136.04-.164.041-.151.042-.146c.016-.052.032-.104.05-.156l.048-.138.057-.157c.016-.042.034-.084.052-.126.04-.1.084-.2.127-.3l.052-.113c.026-.056.054-.11.082-.164l.057-.112c.03-.054.058-.108.09-.161l.06-.104c.031-.056.065-.11.099-.164l.05-.078c.075-.118.154-.235.238-.35.014-.017.026-.035.038-.051l.123-.162c.022-.028.044-.058.068-.086.041-.051.083-.101.127-.153l.072-.082a9.22 9.22 0 01.198-.218c.114-.12.23-.235.354-.347A7.338 7.338 0 0019.012.008h-.016a7.141 7.141 0 00-4.255 1.429 6.909 6.909 0 00-1.577 1.659c.203.301.386.623.545.964.77 1.657 1.036 3.723 1.032 5.815v.01c-.012 4.957-1.553 10.047-1.575 10.115.054-.022.654-.282 1.575-.74 1.694-.845 4.467-2.364 6.871-4.319a19.477 19.477 0 002.354-2.233c-.002-.01-.004-.012-.004-.012z" fill="#01B4C0"/><path d="M34.224 4.052c.16-.341.342-.663.545-.964a6.909 6.909 0 00-1.577-1.66 7.182 7.182 0 00-6.871-.951 7.32 7.32 0 00-2.354 1.445l.05.048c.099.092.194.187.29.285l.081.084c.044.046.086.094.128.14.027.032.055.062.081.094l.12.143c.025.032.051.064.075.098.04.05.077.1.115.15l.06.084c.072.1.141.201.207.303.021.032.041.066.063.098l.094.156.065.114c.03.051.058.103.086.155.022.04.042.08.062.12.025.052.053.104.077.156l.06.127c.04.088.077.176.115.266l.06.148c.02.05.035.1.053.15.018.047.034.095.05.145l.048.15c.016.05.03.1.043.152l.042.147c.016.058.028.116.042.174l.03.128c.02.096.04.191.055.287.008.042.014.086.02.128.01.062.018.124.026.184l.016.135.018.182c.004.044.008.088.01.132a7.072 7.072 0 01.008.712c-.004.076-.006.152-.012.226-.002.04-.006.08-.01.12-.006.068-.014.136-.022.203l-.014.118c-.01.074-.022.146-.034.22l-.016.098a8.73 8.73 0 01-.065.313l-.012.05c-.022.088-.044.178-.07.265l-.031.104a9.252 9.252 0 01-.068.214l-.038.11a4.738 4.738 0 01-.081.215 5.874 5.874 0 01-.171.403 6.889 6.889 0 01-.2.396c-.035.068-.073.138-.11.205l-.06.104-.125.21-.052.086a12.176 12.176 0 01-.396.585c-.018.025-.038.05-.055.075-.054.074-.11.146-.165.22l-.06.076c-.064.08-.127.16-.193.24a11.35 11.35 0 01-.286.335 19.675 19.675 0 002.356 2.236c2.404 1.956 5.177 3.473 6.871 4.317.92.46 1.523.72 1.575.741-.036-.084-3.142-10.345-.549-15.93z" fill="#C5E4EA"/><path d="M11.583 9.883c-.006-2.098.26-4.17 1.032-5.831.16-.341.342-.663.545-.964a6.91 6.91 0 00-1.577-1.66A7.195 7.195 0 004.197.693C.592 2.381-.996 6.623.65 10.164c1.956 4.213 8.029 7.64 10.933 9.087.919.46 1.521.717 1.575.741-.02-.068-1.555-5.134-1.575-10.083v-.026z" fill="#336081"/><path d="M14.737 9.867c.004-2.092-.264-4.158-1.031-5.815a7.086 7.086 0 00-.545-.964 7.086 7.086 0 00-.545.964c-.771 1.66-1.038 3.733-1.032 5.831v.026c.02 4.947 1.553 10.015 1.575 10.083.002 0 .002 0 .002.002l.004-.002c.02-.068 1.56-5.158 1.574-10.115v-.01h-.002z" fill="#003C57"/><path d="M43.73.692a7.266 7.266 0 00-3.113-.69h-.016a7.141 7.141 0 00-4.255 1.429A6.909 6.909 0 0034.77 3.09c.202.301.385.623.544.964.766 1.649 1.034 3.703 1.032 5.785v.086c-.022 4.945-1.555 10.003-1.574 10.069.051-.022.652-.282 1.574-.74 2.905-1.448 8.977-4.876 10.934-9.088 1.642-3.545.055-7.785-3.55-9.474z" fill="#DCDDDE"/><path d="M36.345 9.837c.002-2.082-.267-4.138-1.032-5.785a7.097 7.097 0 00-.545-.964 7.097 7.097 0 00-.544.964c-2.593 5.583.513 15.846.542 15.94.002 0 .002 0 .002.002l.004-.002c.02-.066 1.551-5.124 1.575-10.07v-.085h-.002z" fill="#AAC6CC"/><path d="M23.61 2.27c-.021.021-.04.043-.063.065-.046.05-.091.1-.135.152l-.072.082c-.043.05-.085.102-.127.153-.022.028-.046.056-.067.086-.042.054-.084.106-.124.162-.012.018-.023.036-.037.052a8.281 8.281 0 00-.239.35l-.05.077c-.034.054-.065.11-.1.164l-.059.104-.09.161c-.02.036-.037.074-.057.112a4.029 4.029 0 00-.081.164c-.018.038-.036.076-.052.114a4.984 4.984 0 00-.127.299 3.332 3.332 0 01-.052.126c-.02.052-.038.106-.058.157l-.047.138c-.018.052-.034.104-.05.156-.014.048-.03.096-.042.146-.014.05-.03.101-.042.151l-.04.164-.031.136c-.02.094-.038.19-.056.285a2.682 2.682 0 00-.02.134 5.428 5.428 0 00-.042.317c-.005.06-.011.118-.015.178-.004.046-.008.09-.01.136l-.01.2a5.106 5.106 0 00-.002.417c0 .032.004.065.004.097a3.93 3.93 0 00.021.342l.02.2c.004.041.01.081.016.121.01.072.022.144.034.216l.018.102c.02.103.04.207.066.311.004.018.01.036.013.054.022.086.044.174.068.26l.032.105c.02.07.044.14.066.21l.037.112.08.213.038.098c.041.102.085.206.133.306.046.1.097.201.147.3.016.033.034.063.05.095.038.07.075.14.115.21l.058.101c.041.072.085.142.129.214l.052.082c.061.097.125.195.19.293l.01.014.195.277c.02.026.04.052.058.08.054.072.107.144.161.214.022.028.042.056.064.082.06.076.12.151.183.227l.045.056c.08.096.161.192.245.288l.002.002c.085-.098.169-.194.25-.292l.036-.044c.066-.08.13-.16.193-.24l.06-.075.165-.22c.017-.026.037-.05.055-.076.066-.091.131-.183.195-.275.004-.006.008-.01.01-.016.066-.098.13-.196.191-.293l.052-.086c.043-.07.085-.14.125-.21l.06-.104c.037-.068.075-.135.11-.205.019-.032.035-.064.053-.096a6.889 6.889 0 00.28-.605c.014-.032.026-.066.038-.098l.081-.215c.014-.036.026-.074.038-.11.024-.07.046-.142.068-.214l.031-.104c.024-.087.048-.177.07-.265l.012-.05c.024-.104.046-.21.066-.313l.015-.098c.012-.074.024-.146.034-.22.006-.04.01-.08.014-.118.008-.067.016-.135.022-.203a4.374 4.374 0 00.026-.437c.002-.102.004-.206.002-.308 0-.036-.002-.072-.004-.108a7.443 7.443 0 00-.02-.337c-.006-.062-.01-.122-.018-.182-.004-.046-.01-.09-.016-.135l-.026-.184c-.006-.042-.012-.084-.02-.128-.015-.096-.035-.191-.055-.287l-.03-.128-.042-.174c-.012-.05-.028-.097-.041-.147l-.044-.152-.048-.15c-.016-.048-.034-.096-.05-.146l-.053-.15a10.102 10.102 0 00-.175-.413c-.02-.041-.038-.085-.06-.127l-.078-.156-.061-.12c-.028-.052-.056-.104-.086-.155a6.75 6.75 0 00-.49-.755c-.037-.05-.074-.1-.114-.15l-.076-.098-.119-.143-.081-.094a4.216 4.216 0 00-.128-.14 6.519 6.519 0 00-.372-.37c-.015-.015-.031-.031-.05-.047-.114.11-.234.227-.347.345z" fill="#179CAA"/></svg>